<svg xmlns="http://www.w3.org/2000/svg" viewBox="0 0 512 512" width="512" height="512" role="img" aria-label="퀄리오 반짝임">
  <defs>
    <linearGradient id="qb-bg" x1="0" y1="0" x2="1" y2="1">
      <stop offset="0" stop-color="#0f766e"/>
      <stop offset="1" stop-color="#14b8a6"/>
    </linearGradient>
  </defs>
  <rect width="512" height="512" rx="116" fill="url(#qb-bg)"/>
  <!-- Q 링 + 꼬리 -->
  <circle cx="238" cy="246" r="116" fill="none" stroke="#ffffff" stroke-width="44"/>
  <line x1="292" y1="300" x2="364" y2="372" stroke="#ffffff" stroke-width="44" stroke-linecap="round"/>
  <!-- 청결을 상징하는 반짝임 (4각 별) -->
  <path d="M392 96 C400 144 412 156 460 164 C412 172 400 184 392 232 C384 184 372 172 324 164 C372 156 384 144 392 96 Z" fill="#ffffff"/>
  <path d="M338 196 C342 218 348 224 370 228 C348 232 342 238 338 260 C334 238 328 232 306 228 C328 224 334 218 338 196 Z" fill="#ffffff" opacity="0.75"/>
</svg>
